<svg xmlns="http://www.w3.org/2000/svg" width="430" height="430" style="width:100%;height:100%;transform:translate3d(0,0,0);content-visibility:visible" viewBox="0 0 430 430"><defs><clipPath id="i"><path d="M0 0h430v430H0z"/></clipPath><clipPath id="m"><path d="M0 0h430v430H0z"/></clipPath><clipPath id="e"><path d="M0 0h430v430H0z"/></clipPath><clipPath id="j"><path d="M0 0h430v430H0z"/></clipPath><clipPath id="g"><path d="M0 0h430v430H0z"/></clipPath><mask id="f" mask-type="alpha"><use xmlns:ns1="http://www.w3.org/1999/xlink" ns1:href="#a"/></mask><mask id="o" mask-type="alpha"><use xmlns:ns2="http://www.w3.org/1999/xlink" ns2:href="#b"/></mask><mask id="h" mask-type="alpha"><use xmlns:ns3="http://www.w3.org/1999/xlink" ns3:href="#c"/></mask><mask id="k" mask-type="alpha"><use xmlns:ns4="http://www.w3.org/1999/xlink" ns4:href="#d"/></mask><g id="b" clip-path="url(#e)" style="display:none"><g mask="url(#f)" style="display:none"><path fill-opacity="0" stroke-linecap="round" stroke-linejoin="round" class="secondary"/><path fill-opacity="0" stroke-linecap="round" stroke-linejoin="round" class="primary"/><path/></g><path fill-opacity="0" stroke-linecap="round" stroke-linejoin="round" class="primary" style="display:none"/><path style="display:none"/></g><g id="a" style="display:none"><path/><path fill-opacity="0" stroke-linecap="round" stroke-linejoin="round"/></g><g id="d" clip-path="url(#g)" style="display:block"><g mask="url(#h)" style="display:block"><path fill-opacity="0" stroke="#CB5EEE" stroke-linecap="round" stroke-linejoin="round" stroke-width="13.2" d="m215 133.792-73.816 53.632 28.195 86.777h91.243l28.195-86.777L215 133.792zm73.817 53.632 59.827-24.245M260.622 274.2l41.412 55.492M169.38 274.201l-40.58 56.123m12.385-142.9L81.4 163.064" class="secondary"/><path fill-opacity="0" stroke="#CB5EEE" stroke-linecap="round" stroke-linejoin="round" stroke-width="13.2" d="m215 72.012.126 62.28L141 185.752l27.5 84.75 90.5 4 25.5-85.5-69.31-54.29-.19-62.7z" class="secondary"/><path fill="red" d="m215 72.012.126 62.28L141 185.752l27.5 84.75 90.5 4 25.5-85.5-69.31-54.29-.19-62.7z"/><path fill-opacity="0" stroke="#4BE1EC" stroke-linecap="round" stroke-linejoin="round" stroke-width="13.2" d="M215 72.012 79.977 13.18 212.85-59.599M215 72.011l146.023-63.23L213.05-59.25m135.594 222.428L352.45 18.81l113.799 96.34m-117.605 48.03 95.217 96.814 22.338-145.242M302.034 329.693l133.826-34.497-58.16 148.055m-75.666-113.558-65.849 113.404 141.965 1.654M128.799 330.324l69.048 115.892L24.65 461.951m104.148-131.627L-1.856 298.528l26.69 163.363m56.567-298.827L2.64 243.337-51.85 126.15M81.4 163.064l-1.545-107.52-131.822 70.613" class="primary"/><path fill="red" d="M215 72.012 79.977 13.18 212.85-59.599M215 72.011l146.023-63.23L213.05-59.25m135.594 222.428L352.45 18.81l113.799 96.34m-117.605 48.03 95.217 96.814 22.338-145.242M302.034 329.693l133.826-34.497-58.16 148.055m-75.666-113.558-65.849 113.404 141.965 1.654M128.799 330.324l69.048 115.892L24.65 461.951m104.148-131.627L-1.856 298.528l26.69 163.363m56.567-298.827L2.64 243.337-51.85 126.15M81.4 163.064l-1.545-107.52-131.822 70.613"/></g><path fill-opacity="0" stroke="#4BE1EC" stroke-linecap="round" stroke-linejoin="round" stroke-width="12" d="M61.013-155.303C146.785-121.606 189-24.759 155.303 61.013 121.606 146.785 24.759 189-61.013 155.303-146.785 121.606-189 24.759-155.303-61.013-121.606-146.785-24.759-189 61.013-155.303z" class="primary" style="display:block" transform="matrix(1.1 0 0 1.1 215 215.55)"/></g><g id="c" style="display:block"><path fill="red" d="M282.114 44.718c94.35 37.066 140.786 143.598 103.72 237.947-37.067 94.35-143.599 140.786-237.948 103.72-94.35-37.068-140.786-143.6-103.72-237.948 37.068-94.35 143.6-140.786 237.948-103.72z"/><path fill-opacity="0" stroke="#CB5EEE" stroke-linecap="round" stroke-linejoin="round" stroke-width="0" d="M282.114 44.718c94.35 37.066 140.786 143.598 103.72 237.947-37.067 94.35-143.599 140.786-237.948 103.72-94.35-37.068-140.786-143.6-103.72-237.948 37.068-94.35 143.6-140.786 237.948-103.72z" class="secondary"/></g><filter id="n" width="300%" height="300%" x="-100%" y="-100%"><feGaussianBlur result="filter_result_0"/></filter><filter id="l" width="300%" height="300%" x="-100%" y="-100%"><feGaussianBlur result="filter_result_0" stdDeviation="52.5 52.5"/></filter></defs><g clip-path="url(#i)"><g clip-path="url(#j)" mask="url(#k)" style="display:block"><g filter="url(#l)" transform="rotate(-94 238.762 -16.565) scale(2.4)"><g class="design"><path fill="#4BE1EC" d="M0-250c137.975 0 250 112.025 250 250S137.975 250 0 250-250 137.975-250 0-137.975-250 0-250z" class="primary"/></g><g class="design"><path fill="#CB5EEE" d="M113.242-295.384c97.478 0 176.5 79.022 176.5 176.5s-79.022 176.5-176.5 176.5c-43.948 0-74.396-34.057-105.29-60.631-37.631-32.369-71.21-62.338-71.21-115.869 0-97.478 79.022-176.5 176.5-176.5z" class="secondary"/></g></g></g><g clip-path="url(#m)" filter="url(#n)" mask="url(#o)" style="display:none"><g class="design"><path class="primary"/></g><g class="design"><path class="secondary"/></g></g></g></svg>